<?xml version="1.0" encoding="UTF-8" standalone="no"?>
<svg version="1.1" xmlns="http://www.w3.org/2000/svg" xmlns:xlink="http://www.w3.org/1999/xlink">
  <symbol id="icon-check" viewBox="0 0 20 20">
    <path d="M8.294,16.998c-0.435,0-0.847-0.203-1.111-0.553L3.61,11.724c-0.465-0.613-0.344-1.486,0.27-1.951  c0.615-0.467,1.488-0.344,1.953,0.27l2.351,3.104l5.911-9.492c0.407-0.652,1.267-0.852,1.921-0.445  c0.653,0.406,0.854,1.266,0.446,1.92L9.478,16.34c-0.242,0.391-0.661,0.635-1.12,0.656C8.336,16.998,8.316,16.998,8.294,16.998z"/>
  </symbol>

  <symbol id="icon-lock" viewBox="0 0 20 20">
    <path d="M15.8,8H14V5.6C14,2.703,12.665,1,10,1C7.334,1,6,2.703,6,5.6V8H4C3.447,8,3,8.646,3,9.199V17  c0,0.549,0.428,1.139,0.951,1.307l1.197,0.387C5.672,18.861,6.55,19,7.1,19h5.8c0.549,0,1.428-0.139,1.951-0.307l1.196-0.387  C16.571,18.139,17,17.549,17,17V9.199C17,8.646,16.352,8,15.8,8z M12,8H8V5.199C8,3.754,8.797,3,10,3s2,0.754,2,2.199V8z"/>
  </symbol>
</svg>
