<?xml version="1.0" encoding="UTF-8" standalone="no"?>
<svg version="1.1" xmlns="http://www.w3.org/2000/svg" xmlns:xlink="http://www.w3.org/1999/xlink">
  <symbol id="icon-check" viewBox="0 0 20 20">
    <path d="M8.294,16.998c-0.435,0-0.847-0.203-1.111-0.553L3.61,11.724c-0.465-0.613-0.344-1.486,0.27-1.951  c0.615-0.467,1.488-0.344,1.953,0.27l2.351,3.104l5.911-9.492c0.407-0.652,1.267-0.852,1.921-0.445  c0.653,0.406,0.854,1.266,0.446,1.92L9.478,16.34c-0.242,0.391-0.661,0.635-1.12,0.656C8.336,16.998,8.316,16.998,8.294,16.998z"/>
  </symbol>

  <symbol id="icon-lock" viewBox="0 0 20 20">
    <path d="M15.8,8H14V5.6C14,2.703,12.665,1,10,1C7.334,1,6,2.703,6,5.6V8H4C3.447,8,3,8.646,3,9.199V17  c0,0.549,0.428,1.139,0.951,1.307l1.197,0.387C5.672,18.861,6.55,19,7.1,19h5.8c0.549,0,1.428-0.139,1.951-0.307l1.196-0.387  C16.571,18.139,17,17.549,17,17V9.199C17,8.646,16.352,8,15.8,8z M12,8H8V5.199C8,3.754,8.797,3,10,3s2,0.754,2,2.199V8z"/>
  </symbol>

  <symbol id="icon-list" viewBox="0 0 20 20">
    <path d="M14.4,9H8.6C8.048,9,8,9.447,8,10s0.048,1,0.6,1h5.8c0.552,0,0.6-0.447,0.6-1S14.952,9,14.4,9z M16.4,14H8.6  C8.048,14,8,14.447,8,15s0.048,1,0.6,1h7.8c0.552,0,0.6-0.447,0.6-1S16.952,14,16.4,14z M8.6,6h7.8C16.952,6,17,5.553,17,5  s-0.048-1-0.6-1H8.6C8.048,4,8,4.447,8,5S8.048,6,8.6,6z M5.4,9H3.6C3.048,9,3,9.447,3,10s0.048,1,0.6,1h1.8C5.952,11,6,10.553,6,10  S5.952,9,5.4,9z M5.4,14H3.6C3.048,14,3,14.447,3,15s0.048,1,0.6,1h1.8C5.952,16,6,15.553,6,15S5.952,14,5.4,14z M5.4,4H3.6  C3.048,4,3,4.447,3,5s0.048,1,0.6,1h1.8C5.952,6,6,5.553,6,5S5.952,4,5.4,4z"/>
  </symbol>

  <symbol id="icon-chevron-left" viewBox="0 0 20 20">
    <path d="M12.452,4.516c0.446,0.436,0.481,1.043,0,1.576L8.705,10l3.747,3.908c0.481,0.533,0.446,1.141,0,1.574  c-0.445,0.436-1.197,0.408-1.615,0c-0.418-0.406-4.502-4.695-4.502-4.695C6.112,10.57,6,10.285,6,10s0.112-0.57,0.335-0.789  c0,0,4.084-4.287,4.502-4.695C11.255,4.107,12.007,4.08,12.452,4.516z"/>
  </symbol>

  <symbol id="icon-chevron-right" viewBox="0 0 20 20" >
    <path d="M9.163,4.516c0.418,0.408,4.502,4.695,4.502,4.695C13.888,9.43,14,9.715,14,10s-0.112,0.57-0.335,0.787  c0,0-4.084,4.289-4.502,4.695c-0.418,0.408-1.17,0.436-1.615,0c-0.446-0.434-0.481-1.041,0-1.574L11.295,10L7.548,6.092  c-0.481-0.533-0.446-1.141,0-1.576C7.993,4.08,8.745,4.107,9.163,4.516z"/>
  </symbol>

  <symbol id="icon-edit" viewBox="0 0 20 20" >
    <path d="M17.561,2.439c-1.442-1.443-2.525-1.227-2.525-1.227L8.984,7.264L2.21,14.037L1.2,18.799l4.763-1.01  l6.774-6.771l6.052-6.052C18.788,4.966,19.005,3.883,17.561,2.439z M5.68,17.217l-1.624,0.35c-0.156-0.293-0.345-0.586-0.69-0.932  c-0.346-0.346-0.639-0.533-0.932-0.691l0.35-1.623l0.47-0.469c0,0,0.883,0.018,1.881,1.016c0.997,0.996,1.016,1.881,1.016,1.881  L5.68,17.217z"/>
  </symbol>

  <symbol id="icon-clock" viewBox="0 0 20 20" >
    <path d="M10,0.4c-5.303,0-9.601,4.298-9.601,9.6c0,5.303,4.298,9.601,9.601,9.601c5.301,0,9.6-4.298,9.6-9.601  C19.6,4.698,15.301,0.4,10,0.4z M9.999,17.6c-4.197,0-7.6-3.402-7.6-7.6c0-4.197,3.402-7.6,7.6-7.6c4.197,0,7.601,3.402,7.601,7.6  C17.6,14.197,14.196,17.6,9.999,17.6z M11,9.33V4H9v6.245l-3.546,2.048l1,1.732l4.115-2.377C10.807,11.511,11,11.175,11,10.9v-0.168  l4.24-4.166c-0.198-0.271-0.411-0.529-0.647-0.766L11,9.33z"/>
  </symbol>

  <symbol id="icon-cog" viewBox="0 0 20 20" >
    <path d="M16.783,10c0-1.049,0.646-1.875,1.617-2.443c-0.176-0.584-0.407-1.145-0.692-1.672  c-1.089,0.285-1.97-0.141-2.711-0.883c-0.741-0.74-0.968-1.621-0.683-2.711c-0.527-0.285-1.088-0.518-1.672-0.691  C12.074,2.57,11.047,3.215,10,3.215c-1.048,0-2.074-0.645-2.643-1.615C6.772,1.773,6.213,2.006,5.686,2.291  c0.285,1.09,0.059,1.971-0.684,2.711C4.262,5.744,3.381,6.17,2.291,5.885C2.006,6.412,1.774,6.973,1.6,7.557  C2.57,8.125,3.215,8.951,3.215,10c0,1.047-0.645,2.074-1.615,2.643c0.175,0.584,0.406,1.144,0.691,1.672  c1.09-0.285,1.971-0.059,2.711,0.682c0.741,0.742,0.969,1.623,0.684,2.711c0.527,0.285,1.087,0.518,1.672,0.693  c0.568-0.973,1.595-1.617,2.643-1.617c1.047,0,2.074,0.645,2.643,1.617c0.584-0.176,1.144-0.408,1.672-0.693  c-0.285-1.088-0.059-1.969,0.683-2.711c0.741-0.74,1.622-1.166,2.711-0.883c0.285-0.527,0.517-1.086,0.692-1.672  C17.429,11.873,16.783,11.047,16.783,10z M10,13.652c-2.018,0-3.653-1.635-3.653-3.652c0-2.018,1.636-3.654,3.653-3.654  c2.018,0,3.652,1.637,3.652,3.654C13.652,12.018,12.018,13.652,10,13.652z"/>
  </symbol>

  <symbol id="icon-wallet" viewBox="0 0 20 20" >
    <path d="M16,6H3.5V5.5l11-0.88V5.5H16V4c0-1.1-0.891-1.872-1.979-1.717L3.98,3.717C2.891,3.873,2,4.9,2,6v10  c0,1.104,0.895,2,2,2h12c1.104,0,2-0.896,2-2V8C18,6.896,17.104,6,16,6z M14.5,13.006c-0.828,0-1.5-0.672-1.5-1.5s0.672-1.5,1.5-1.5  s1.5,0.672,1.5,1.5S15.328,13.006,14.5,13.006z"/>
  </symbol>
  <symbol id="icon-add-circle" viewBox="0 0 20 20" >
    <path d="M9.70260223,15 C9.57868587,15 9.47645641,14.9594261 9.39591078,14.8782772 C9.31536515,14.7971282 9.27509294,14.694133 9.27509294,14.5692884 L9.27509294,10.6554307 L5.42750929,10.6554307 C5.30359294,10.6554307 5.20136348,10.6148568 5.12081784,10.5337079 C5.04027221,10.4525589 5,10.3495637 5,10.2247191 L5,9.66292135 C5,9.53807678 5.04027221,9.43508155 5.12081784,9.35393258 C5.20136348,9.27278361 5.30359294,9.23220974 5.42750929,9.23220974 L9.27509294,9.23220974 L9.27509294,5.43071161 C9.27509294,5.29338258 9.31536515,5.18726629 9.39591078,5.11235955 C9.47645641,5.03745281 9.57868587,5 9.70260223,5 L10.2973978,5 C10.4337058,5 10.5390331,5.03745281 10.6133829,5.11235955 C10.6877327,5.18726629 10.7249071,5.29338258 10.7249071,5.43071161 L10.7249071,9.23220974 L14.5724907,9.23220974 C14.6964071,9.23220974 14.7986365,9.27278361 14.8791822,9.35393258 C14.9597278,9.43508155 15,9.53807678 15,9.66292135 L15,10.2247191 C15,10.3495637 14.9597278,10.4525589 14.8791822,10.5337079 C14.7986365,10.6148568 14.6964071,10.6554307 14.5724907,10.6554307 L10.7249071,10.6554307 L10.7249071,14.5692884 C10.7249071,14.694133 10.6846349,14.7971282 10.6040892,14.8782772 C10.5235436,14.9594261 10.4213141,15 10.2973978,15 L9.70260223,15 Z"></path>
    <path d="M10,18.75 C14.8324916,18.75 18.75,14.8324916 18.75,10 C18.75,5.16750844 14.8324916,1.25 10,1.25 C5.16750844,1.25 1.25,5.16750844 1.25,10 C1.25,14.8324916 5.16750844,18.75 10,18.75 Z M10,20 C4.4771525,20 0,15.5228475 0,10 C0,4.4771525 4.4771525,0 10,0 C15.5228475,0 20,4.4771525 20,10 C20,15.5228475 15.5228475,20 10,20 Z"></path>
  </symbol>
</svg>
