<?xml version="1.0" encoding="UTF-8" standalone="no"?>
<svg version="1.1" xmlns="http://www.w3.org/2000/svg" xmlns:xlink="http://www.w3.org/1999/xlink">
  <symbol id="icon-check" viewBox="0 0 20 20">
    <path d="M8.294,16.998c-0.435,0-0.847-0.203-1.111-0.553L3.61,11.724c-0.465-0.613-0.344-1.486,0.27-1.951  c0.615-0.467,1.488-0.344,1.953,0.27l2.351,3.104l5.911-9.492c0.407-0.652,1.267-0.852,1.921-0.445  c0.653,0.406,0.854,1.266,0.446,1.92L9.478,16.34c-0.242,0.391-0.661,0.635-1.12,0.656C8.336,16.998,8.316,16.998,8.294,16.998z"/>
  </symbol>

  <symbol id="icon-lock" viewBox="0 0 20 20">
    <path d="M15.8,8H14V5.6C14,2.703,12.665,1,10,1C7.334,1,6,2.703,6,5.6V8H4C3.447,8,3,8.646,3,9.199V17  c0,0.549,0.428,1.139,0.951,1.307l1.197,0.387C5.672,18.861,6.55,19,7.1,19h5.8c0.549,0,1.428-0.139,1.951-0.307l1.196-0.387  C16.571,18.139,17,17.549,17,17V9.199C17,8.646,16.352,8,15.8,8z M12,8H8V5.199C8,3.754,8.797,3,10,3s2,0.754,2,2.199V8z"/>
  </symbol>

  <symbol id="icon-list" viewBox="0 0 20 20">
    <path d="M14.4,9H8.6C8.048,9,8,9.447,8,10s0.048,1,0.6,1h5.8c0.552,0,0.6-0.447,0.6-1S14.952,9,14.4,9z M16.4,14H8.6  C8.048,14,8,14.447,8,15s0.048,1,0.6,1h7.8c0.552,0,0.6-0.447,0.6-1S16.952,14,16.4,14z M8.6,6h7.8C16.952,6,17,5.553,17,5  s-0.048-1-0.6-1H8.6C8.048,4,8,4.447,8,5S8.048,6,8.6,6z M5.4,9H3.6C3.048,9,3,9.447,3,10s0.048,1,0.6,1h1.8C5.952,11,6,10.553,6,10  S5.952,9,5.4,9z M5.4,14H3.6C3.048,14,3,14.447,3,15s0.048,1,0.6,1h1.8C5.952,16,6,15.553,6,15S5.952,14,5.4,14z M5.4,4H3.6  C3.048,4,3,4.447,3,5s0.048,1,0.6,1h1.8C5.952,6,6,5.553,6,5S5.952,4,5.4,4z"/>
  </symbol>

  <symbol id="icon-chevron-left" viewBox="0 0 20 20">
    <path d="M12.452,4.516c0.446,0.436,0.481,1.043,0,1.576L8.705,10l3.747,3.908c0.481,0.533,0.446,1.141,0,1.574  c-0.445,0.436-1.197,0.408-1.615,0c-0.418-0.406-4.502-4.695-4.502-4.695C6.112,10.57,6,10.285,6,10s0.112-0.57,0.335-0.789  c0,0,4.084-4.287,4.502-4.695C11.255,4.107,12.007,4.08,12.452,4.516z"/>
  </symbol>

  <symbol id="icon-chevron-right" viewBox="0 0 20 20" >
    <path d="M9.163,4.516c0.418,0.408,4.502,4.695,4.502,4.695C13.888,9.43,14,9.715,14,10s-0.112,0.57-0.335,0.787  c0,0-4.084,4.289-4.502,4.695c-0.418,0.408-1.17,0.436-1.615,0c-0.446-0.434-0.481-1.041,0-1.574L11.295,10L7.548,6.092  c-0.481-0.533-0.446-1.141,0-1.576C7.993,4.08,8.745,4.107,9.163,4.516z"/>
  </symbol>
</svg>
