<?xml version="1.0" encoding="UTF-8"?>
<svg width="300px" height="68px" viewBox="0 0 300 68" version="1.1" xmlns="http://www.w3.org/2000/svg" xmlns:xlink="http://www.w3.org/1999/xlink">
    <!-- Generator: Sketch 52.6 (67491) - http://www.bohemiancoding.com/sketch -->
    <g id="Page-1" stroke="none" stroke-width="1" fill="none" fill-rule="evenodd">
        <g id="iPhone-XS" transform="translate(-39.000000, -381.000000)" fill="#363537">
            <g id="Group" transform="translate(39.000000, 381.000000)">
                <g id="dogoo" transform="translate(188.000000, 0.000000)">
                    <path d="M39.9992642,54.3156704 C39.9888104,53.9223104 39.8680161,53.5189379 39.7046932,53.1726843 C39.4431333,52.6181628 39.0794537,52.1373971 38.8546235,51.5595309 C38.62395,50.9671166 38.5513254,50.3056831 38.4158151,49.671316 C38.2460794,48.8779341 37.969772,48.1031604 37.5601804,47.4481552 C37.3823753,47.1646353 36.3881695,45.7818841 36.0439678,46.0295411 C35.7390001,46.2491167 37.1171981,49.0646918 37.2081875,49.5461342 C37.3904447,50.5127406 37.3907229,51.554456 37.7819498,52.4246386 C38.2459785,53.4567865 39.1653819,54.0452235 39.8193803,54.9126589 C39.2889874,56.6171607 38.3863019,59.0427164 37.3778212,59.7171317 C35.7759375,60.7880607 34.520355,61.8015267 34.520355,61.8015267 C34.520355,61.8015267 29.1712475,63.3539885 26.9372517,61.2150198 C25.380496,59.7245152 21.8601924,58.8725231 21.8601924,58.8725231 L12.8150701,56.6372478 C12.8150701,56.6372478 8.00941881,55.0308543 8.27666615,51.8174253 C8.28897116,51.6692756 8.30042529,51.5336463 8.31108086,51.4096979 C8.3638704,51.6019293 8.42403003,51.7986658 8.49204445,52 C8.49204445,52 8.87850029,49.5595975 9.35967023,48.6351843 C9.46986405,48.9269412 9.58835571,49.2432124 9.68853528,49.5593717 C9.96725138,50.4383904 9.85304717,51.6491716 9.85304717,51.6491716 C11.6025401,54.4661098 13.9933113,52.0031531 13.9933113,52.0031531 C13.9933113,52.0031531 15.3331146,50.1261074 14.9214012,47.8509466 C14.5096878,45.5757858 12.0769935,46.0387315 12.0769935,46.0387315 C12.0769935,46.0387315 10.6174461,47.1745584 9.75119465,47.3593755 C9.94511317,46.3111467 10.3110366,44.93389 12.4009454,44.2858305 C15.440872,43.3427525 17.4386888,42.1429153 17.4386888,42.1429153 L18.5944475,41.7086604 C20.4621688,42.4208085 22.5989222,43.6792161 23.0216669,43.9323487 C22.9983109,44.0336726 22.9930579,44.1395374 23.0097277,44.250573 C23.141662,45.1300519 25.262951,46.4124744 26,47 C25.2394168,46.3449149 24.663185,45.5179153 24.4702757,44.6143081 C24.332401,43.9684886 24.4027187,43.283691 24.694117,42.6787253 C25.8544307,41.8542347 27.4914539,40.9283491 29.0694191,40.853726 C31.9566751,40.717505 36.8128955,43.8542688 37.7315093,42.7631623 C38.6501232,41.6720558 46,40.4447284 46,40.4447284 C43.374929,39.2174009 39.1751374,40.717505 38.5190307,40.853726 C38.2448992,40.910753 37.2613054,40.492062 36.2086151,39.985037 C36.0174797,39.7689485 35.8411956,39.5719836 35.7467048,39.4183799 C35.2360515,38.5886859 34.9029142,37.663161 34.5856085,36.7568653 C34.1113342,35.4026231 33.6367231,34.0461743 33.2867437,32.6591479 C33.2129752,32.3675571 33.1422382,32.0680855 32.9701117,31.8152684 C32.8087641,31.5785282 32.5692691,31.3991605 32.334153,31.2245212 C30.8894353,30.149891 29.4447177,29.0749455 28,28 C28.891959,28.8817075 29.7849286,29.7643607 30.5936876,30.7135281 C31.0895198,31.2951335 31.5580678,31.9095232 31.8423629,32.6042973 C32.3900688,33.9418321 32.2054791,35.4272113 32.1751633,36.8596314 C32.1634762,37.4117259 32.1854304,37.9841532 32.2792194,38.5368536 C31.448664,38.5659429 29.9850973,38.4024545 27.7568835,37.4445202 C23.9510137,35.8078605 17.6508432,39.2174009 17.6508432,39.2174009 C17.6508432,39.2174009 15.6908975,40.4062384 11.7452385,40.717505 C9.84203451,40.8675688 8.70091216,41.6795966 8.01726069,42.6237326 C6.98951093,39.8243999 1.3368963,22.2273237 19.7834152,17.7048515 C19.7834152,17.7048515 26.7245927,15.9492006 28.4362114,18.485213 C30.1478301,21.0209006 33,25.507167 33,25.507167 L31.5737567,19.8506832 L27.7704412,15.169164 L24.9611268,10.2423527 C25.0503254,10.2199811 25.1399724,10.1978858 25.2300693,10.1760725 C25.2300693,10.1760725 26.1643148,8.16775963 26.2977785,7.09650962 C26.4315622,6.02525962 26.9654167,4.68627737 27.4992713,4.01694675 C28.0334459,3.34761614 31.771068,0.669651636 33.1060245,0.535785514 C34.440981,0.401919391 34.7079083,0 35.5090102,0.401919391 C36.309792,0.803517759 37.7782121,1.47284837 37.7782121,2.27636613 C37.7782121,3.07988389 38.4455304,4.55241124 37.7782121,5.22206288 C37.1105739,5.8913935 36.4432557,5.8913935 36.4432557,5.8913935 C36.4432557,5.8913935 36.8436466,7.23037575 34.9748355,7.49810799 C33.1060245,7.76616126 34.9748355,8.97095637 34.9748355,8.97095637 L40.848516,14.0591531 L41.6496179,15.6658676 L43.9836701,16.4274086 C47.4875483,18.9478658 54.722275,24.1480009 58.1203343,26.5609392 C62.6981297,29.8114915 70.6169519,29.6816836 75.5662555,26.9510323 C78.4870551,25.3394524 80.2012155,24.2713723 81.115653,23.6666011 C81.2176617,23.6758332 81.322379,23.6867319 81.4301048,23.6994401 C83.6996268,23.9671724 85.7019015,23.8333062 85.7019015,23.8333062 C85.7019015,23.8333062 89.4395236,21.5572611 90.2403054,21.423395 C91.0414073,21.2895289 94.9128131,18.8792966 95.4466677,18.6115644 C95.9808423,18.3435111 97.5827261,17.138395 98.2500443,17.138395 C98.9176826,17.138395 99.7184644,16.2013321 101.587596,16.2013321 C103.456087,16.2013321 103.055696,17.8080466 103.055696,17.8080466 C103.055696,17.8080466 103.055696,19.5486272 102.388057,20.352145 C101.721059,21.1553417 101.454132,22.0927256 100.252639,22.2265917 C99.0511462,22.3604579 98.2500443,23.2978417 98.2500443,23.2978417 L95.5801313,23.9671724 C95.5801313,23.9671724 89.9733781,25.1722885 85.9688288,29.8585658 L83.8330904,33.4739142 C83.8330904,33.4739142 88.1048872,34.1432448 90.7744801,33.6077804 C93.444393,33.0719948 104.524116,33.4739142 104.524116,33.4739142 C104.524116,33.4739142 110.130869,32.9381287 112,31.3314142 C112,31.3314142 111.732753,34.277111 105.05797,34.8125755 C98.3835079,35.348361 88.3718144,35.8838255 88.3718144,35.8838255 C88.3718144,35.8838255 82.6315976,35.6160932 78.6267282,37.3566738 C74.6221788,39.0972545 70.750773,39.7669061 67.8139328,40.3023706 C64.8770925,40.8381561 51.5278478,40.703969 51.5278478,40.703969 L46.4552692,41.3736206 C46.4552692,41.3736206 51.6613114,42.9803351 54.9985426,46.4614963 C54.9985426,46.4614963 61.5398613,49.0055947 63.8090633,51.6835592 C66.0785853,54.3615237 70.750773,61.4577123 68.08086,66.2778558 C65.4109471,71.0979993 59.404123,64.2695429 59.404123,64.2695429 C59.404123,64.2695429 52.595877,59.1813462 50.4598186,59.1813462 C48.3240803,59.1813462 41.2489069,56.1021043 40.4481251,53.6918721 C39.6470232,51.2816398 40.3146615,53.1564076 40.3146615,53.1564076 C40.3146615,53.1564076 40.2006426,53.6252643 39.9992642,54.3156704 Z M8.18311836,50.8877193 C7.66886631,49.9363717 6.49935736,47.4039193 7.02684476,44.8650545 L7.15149295,44.610322 C6.97479415,45.4034341 7.00142916,46 7.00142916,46 C7.55704236,42.1603762 14.4708031,41.5050429 16.3083528,41.232601 C16.6976062,41.174747 17.2265516,41.2645732 17.8185394,41.4421086 C17.4619405,41.5661652 17.122672,41.6638529 16.8309013,41.7146576 C15.3541394,41.9717424 11.0109161,43.3427525 10.5765938,44.0287458 C10.1750042,44.6627381 7.248583,46.5426033 8.18311836,50.8877193 Z M5.359993,36.2718176 C5.32147232,36.2219368 5.2832575,36.1757599 5.24540919,36.1335805 C4.04391635,34.7945982 0.266927284,27.1806013 0.133463642,25.1722885 C0,23.1639756 0,18.4773772 0,18.4773772 C0,18.4773772 0.533854569,13.6572337 1.06802919,11.9166531 C1.60188376,10.1760725 2.8033766,8.569358 2.8033766,8.569358 L3.73762209,6.82877738 C3.73762209,6.82877738 6.67446233,4.55241124 7.60902788,4.41854512 C8.54359344,4.284679 8.94398436,3.74921451 9.61130257,3.88308063 C10.2789408,4.01694675 10.9462591,4.82014349 10.9462591,4.82014349 L12.5481428,5.62366125 C12.5481428,5.62366125 13.616172,7.09650962 13.0823174,7.76616126 C13.0823174,7.76616126 12.8150701,8.43549187 12.1477519,8.70322412 C11.4801136,8.97095637 11.2131863,10.1760725 11.2131863,10.1760725 C11.2131863,10.1760725 10.1451571,11.1134564 9.47783893,11.2473225 C8.81052072,11.3811886 7.87595517,12.5863048 7.87595517,12.5863048 L8.27666615,16.7367966 L9.47783893,20.4860111 C9.47783893,20.4860111 10.3693872,18.8706445 12.4861907,16.8582913 C10.1824151,19.416466 7.90290672,22.9286312 5.99639642,27.7504627 C5.99639642,27.7504627 4.27223517,31.1117901 5.359993,36.2718176 Z M45.3690469,16.8794212 L52.7293406,19.280895 C52.7293406,19.280895 59.003412,15.1300821 60.0714412,14.996216 C61.1394704,14.8623499 61.9405723,14.3268854 66.7459036,14.8623499 C66.7459036,14.8623499 69.2823529,15.6658676 70.2169184,11.5150547 L71.5518749,3.88308063 L72.619584,2.81183062 L75.289497,0 L77.0248444,0.803517759 L77.9590899,2.94569675 C77.9590899,2.94569675 78.0925535,4.01694675 77.558699,4.95400961 C77.0248444,5.8913935 76.6241334,7.76616126 76.6241334,7.76616126 C76.6241334,7.76616126 76.0902788,9.37287576 75.4229606,10.1760725 C74.7556424,10.9792692 74.6221788,12.7201709 74.6221788,12.7201709 L73.6876132,14.8623499 L73.9545405,18.4773772 C73.9545405,18.4773772 73.1537587,21.5572611 72.4861204,21.8249934 C72.4361925,21.8450248 72.3989672,21.8740503 72.3738295,21.910612 C70.7234956,20.8547608 69.9984083,19.669407 69.9984083,19.669407 C69.9984083,19.669407 69.5231198,17.513524 67.9145245,15.8230093 C66.3059292,14.1324946 58.8499801,16.0444858 58.8499801,16.0444858 C58.8499801,16.0444858 54.3084759,19.049139 55.6127338,20.0380884 C57.3668126,21.3679511 60.9660167,21.8503817 60.9660167,21.8503817 C60.9660167,21.8503817 61.5845603,21.7202392 57.7491444,21.8503817 C55.2226782,21.9358818 49.1917896,18.9367775 45.3690469,16.8794212 Z M41.6350153,16 L43.3173725,24.0194666 L40,33 C40,33 44.9759019,26.285541 45.722397,25.0265402 C46.468892,23.7675395 45.4734608,18.0601542 45.4734608,18.0601542 L41.6350153,16 Z M45.8833244,43.42659 C45.8833244,43.42659 45.6859595,43.3616029 45.3701118,43.2821743 C43.8793364,42.9073499 39.7560712,42.2154673 41.3672456,46.5627085 C41.3672456,46.5627085 40.8856497,47.3845652 41.6179437,48.0114607 C42.3502376,48.6386844 44.6691152,49.5169945 44.6691152,51.27263 C44.6691152,53.028922 46.378014,55.4216278 47.7206061,56.0488515 C49.0631983,56.6760752 54.9215498,56.8014543 57.3624232,60.1880028 C59.8036159,63.5752077 61.9347095,65 63.8875998,65 C65.8401707,65 68.2254753,64.067534 66.272585,59.6772963 C64.3196947,55.2870586 60.7802208,51.6494238 56.7524444,49.7674245 C52.724668,47.8860816 46.9883122,43.4958439 46.9883122,43.4958439 L45.8833244,43.42659 Z" id="Combined-Shape"></path>
                    <path d="M11.1068601,49.5127445 C11.3659791,49.2973714 11.4520426,48.9612632 11.5761844,48.6598557 C11.7003263,48.3587349 11.9253915,48.0415543 12.2711932,48.0034123 C12.6668374,47.9598215 13.0048995,48.341528 12.9999462,48.7103292 C12.9946834,49.0794173 12.7389697,49.4074956 12.4405339,49.6515468 C12.1758423,49.8683538 11.8315886,50.0478791 11.4845486,49.9885153 C11.137199,49.9291515 10.8660062,49.5253629 11.0706391,49.2586559" id="Fill-19"></path>
                    <path d="M10.0639745,52.3795973 C10.1815546,52.1995678 10.1955667,51.8613474 10.2331354,51.5665246 C10.2709073,51.2714217 10.3606661,50.9785587 10.540793,51.0012374 C10.7467104,51.0272759 10.9621723,51.490929 10.994258,51.8787064 C11.0261407,52.2667639 10.9209482,52.5657865 10.7852945,52.7687747 C10.6650745,52.9485242 10.4993659,53.0750769 10.3092883,52.9493642 C10.1190077,52.8236515 9.93725613,52.3490791 10.0209228,52.1054932" id="Fill-21"></path>
                    <path d="M29.6721354,47.6171941 C30.0225513,47.943883 30.3042269,48.3525831 30.4915843,48.8053388 C30.5216382,48.877861 30.5558485,48.9585166 30.6252283,48.9883388 C30.6837375,49.0130777 30.7499201,48.993761 30.8100279,48.9737666 C31.0140109,48.9066666 31.2176741,48.8392277 31.4216571,48.7724665 C31.5255669,48.7385776 31.6313951,48.7029943 31.7202779,48.6362332 C31.8436908,48.5423609 31.9213834,48.3973165 31.9981168,48.258372 C32.3309479,47.6561663 32.7238869,47.0776828 32.9077274,46.4076994 C33.4291948,44.5068712 31.6374698,43.6199988 30.1191075,44.1527322 C28.7168045,44.644799 28.708172,46.7187994 29.6721354,47.6171941" id="Fill-23"></path>
                    <path d="M72.6667545,23.7467218 C70.4486039,24.2329894 68.2587491,25.1153242 66,24.987484 C68.2381423,24.2340067 70.4756695,23.4805293 72.7135043,22.7273911 C73.6103605,22.4252542 74.5152134,22.1217608 75.4492849,22.0278305 C76.7336717,21.898973 79.2701509,22.1885633 80,23.5107091 C77.505657,23.5419062 75.1737077,23.1970428 72.6667545,23.7467218" id="Fill-29"></path>
                </g>
                <path d="M163.810932,37.8545082 C163.898451,33.885023 164.511469,30.1002193 165.65,26.5 C165.950001,25.5333285 166.441663,24.8250023 167.125,24.375 C167.808337,23.9249978 168.76666,23.7 170,23.7 C170.66667,23.7 171.133332,23.7833325 171.4,23.95 C171.666668,24.1166675 171.8,24.433331 171.8,24.9 C171.8,25.433336 171.550002,26.633324 171.05,28.5 C170.716665,29.83334 170.450001,30.999995 170.25,32 C170.049999,33.000005 169.883334,34.233326 169.75,35.7 C170.850005,32.833319 172.083326,30.500009 173.45,28.7 C174.816673,26.899991 176.149993,25.6166705 177.45,24.85 C178.750006,24.0833295 179.933328,23.7 181,23.7 C181.966671,23.7 182.708331,23.9749973 183.225,24.525 C183.741669,25.0750027 184,25.883328 184,26.95 C184,27.5833365 183.816668,28.7833245 183.45,30.55 L183.9,30.55 C184.633337,30.55 185.258331,30.8083307 185.775,31.325 C186.291669,31.8416693 186.55,32.4833295 186.55,33.25 C186.55,33.6833355 186.450001,34.1499975 186.25,34.65 C185.716664,35.8833395 184.966671,36.9166625 184,37.75 C183.033328,38.5833375 181.966672,39 180.8,39 C179.866662,39 179.075003,38.66667 178.425,38 C177.774997,37.33333 177.45,36.433339 177.45,35.3 C177.45,34.6666635 177.483333,33.983337 177.55,33.25 C177.616667,32.716664 177.65,32.350001 177.65,32.15 C177.65,31.883332 177.591667,31.683334 177.475,31.55 C177.358333,31.416666 177.216667,31.35 177.05,31.35 C176.583331,31.35 175.950004,31.9083278 175.15,33.025 C174.349996,34.1416722 173.550004,35.6166575 172.75,37.45 C171.949996,39.2833425 171.300002,41.2166565 170.8,43.25 C170.433331,44.850008 170.016669,45.916664 169.55,46.45 C169.083331,46.983336 168.316672,47.25 167.25,47.25 C165.983327,47.25 165.091669,46.58334 164.575,45.25 C164.405999,44.8138674 164.264638,44.2921434 164.150917,43.6848258 C163.382727,44.2606407 162.52409,44.8156977 161.575,45.35 C159.324989,46.616673 156.916679,47.25 154.35,47.25 C150.849982,47.25 148.133343,46.3000095 146.2,44.4 C144.528372,42.7571935 143.579426,40.5911031 143.353142,37.9016785 C142.621873,38.0005597 141.870827,38.05 141.1,38.05 C139.633326,38.05 138.250006,37.850002 136.95,37.45 C135.983328,39.0166745 134.916672,40.633325 133.75,42.3 C132.41666,44.2000095 131.266671,45.4999965 130.3,46.2 C129.333328,46.9000035 128.233339,47.25 127,47.25 C125.633326,47.25 124.558337,46.716672 123.775,45.65 C122.991663,44.583328 122.500001,42.9000115 122.3,40.6 C122.204605,39.4870627 122.120586,38.4073063 122.047942,37.3607291 C120.57786,37.7176657 119.011887,37.9307547 117.35,38 C116.716663,40.800014 115.466676,43.0416582 113.6,44.725 C111.733324,46.4083417 109.616678,47.25 107.25,47.25 C105.24999,47.25 103.541674,46.7666715 102.125,45.8 C101.148738,45.1338451 100.334739,44.3173169 99.6829922,43.3504028 C98.8194574,44.1827229 97.9167961,44.9159195 96.975,45.55 C95.2916582,46.683339 93.383344,47.25 91.25,47.25 C88.316652,47.25 86.1416737,45.91668 84.725,43.25 C84.579276,42.9756961 84.441047,42.6931043 84.3103129,42.4022245 C83.1713336,43.6358892 81.9595695,44.6851413 80.675,45.55 C78.9916582,46.683339 77.083344,47.25 74.95,47.25 C72.016652,47.25 69.8416737,45.91668 68.425,43.25 C67.5520116,41.6067277 66.9480054,39.6660167 66.6129765,37.427843 C65.22594,37.7444923 63.7549539,37.9352103 62.2,38 C61.5666635,40.800014 60.316676,43.0416582 58.45,44.725 C56.583324,46.4083417 54.4666785,47.25 52.1,47.25 C50.09999,47.25 48.3916737,46.7666715 46.975,45.8 C46.1914587,45.2653483 45.5124399,44.6338327 44.937938,43.9054466 C44.1789627,44.5925172 43.4163184,45.1823668 42.65,45.675 C41.0166585,46.7250052 39.0833445,47.25 36.85,47.25 C34.6833225,47.25 32.8416742,46.6666725 31.325,45.5 C29.8083257,44.3333275 28.3666735,42.3333475 27,39.5 C25.8999945,37.233322 25.0333365,35.5583387 24.4,34.475 C23.7666635,33.3916612 23.1416697,32.616669 22.525,32.15 C21.9083302,31.683331 21.1500045,31.4000005 20.25,31.3 C20.116666,32.0000035 19.7333365,34.1999815 19.1,37.9 C18.833332,39.566675 18.666667,40.5833315 18.6,40.95 C18.266665,42.9833435 17.600005,44.5416612 16.6,45.625 C15.599995,46.7083387 14.0833435,47.25 12.05,47.25 C9.8166555,47.25 7.84167525,46.5916732 6.125,45.275 C4.40832475,43.9583267 3.083338,42.1250117 2.15,39.775 C1.216662,37.4249882 0.75,34.750015 0.75,31.75 C0.75,26.149972 1.72499025,21.316687 3.675,17.25 C5.62500975,13.183313 8.35831575,10.0750107 11.875,7.925 C15.3916842,5.77498925 19.449977,4.7 24.05,4.7 C27.250016,4.7 29.9333225,5.1833285 32.1,6.15 C34.2666775,7.1166715 35.8749947,8.4499915 36.925,10.15 C37.9750052,11.8500085 38.5,13.766656 38.5,15.9 C38.5,17.766676 38.0583377,19.5916577 37.175,21.375 C36.2916622,23.1583422 34.9666755,24.7333265 33.2,26.1 C31.4333245,27.4666735 29.283346,28.48333 26.75,29.15 C28.350008,29.5833355 29.583329,30.2833285 30.45,31.25 C31.316671,32.2166715 32.183329,33.633324 33.05,35.5 C33.983338,37.50001 34.9083287,38.966662 35.825,39.9 C36.7416712,40.833338 37.799994,41.3 39,41.3 C40.066672,41.3 41.0833285,40.9416702 42.05,40.225 C42.3244711,40.0215128 42.6190955,39.7770458 42.933874,39.491598 C42.7446242,38.6121435 42.65,37.6982797 42.65,36.75 C42.65,34.216654 43.1333285,31.9583432 44.1,29.975 C45.0666715,27.9916567 46.3999915,26.4416722 48.1,25.325 C49.8000085,24.2083277 51.683323,23.65 53.75,23.65 C56.283346,23.65 58.3249922,24.5249912 59.875,26.275 C61.4250077,28.0250087 62.333332,30.1833205 62.6,32.75 C63.6898516,32.680435 64.9248675,32.4979563 66.3050667,32.2025604 C66.361243,28.305902 66.8845497,23.9050874 67.875,19 C68.9250052,13.799974 70.4749897,9.333352 72.525,5.6 C74.5750102,1.866648 77.0166525,-1.66977543e-13 79.85,-1.66977543e-13 C81.450008,-1.66977543e-13 82.7083287,0.74165925 83.625,2.225 C84.5416712,3.70834075 85,5.8333195 85,8.6 C85,12.5666865 83.900011,17.1666405 81.7,22.4 C79.499989,27.6333595 76.5166855,32.816641 72.75,37.95 C72.9833345,39.3166735 73.366664,40.2916637 73.9,40.875 C74.433336,41.4583362 75.133329,41.75 76,41.75 C77.3666735,41.75 78.5666615,41.3583372 79.6,40.575 C80.4890046,39.9010772 81.5877062,38.8139139 82.89613,37.3134846 C82.6987096,35.9514895 82.6,34.4803298 82.6,32.9 C82.6,28.833313 83.1249947,24.200026 84.175,19 C85.2250052,13.799974 86.7749897,9.333352 88.825,5.6 C90.8750102,1.866648 93.3166525,-1.49213975e-13 96.15,-1.49213975e-13 C97.750008,-1.49213975e-13 99.0083287,0.74165925 99.925,2.225 C100.841671,3.70834075 101.3,5.8333195 101.3,8.6 C101.3,12.5666865 100.200011,17.1666405 98,22.4 C95.799989,27.6333595 92.8166855,32.816641 89.05,37.95 C89.2833345,39.3166735 89.666664,40.2916637 90.2,40.875 C90.733336,41.4583362 91.433329,41.75 92.3,41.75 C93.6666735,41.75 94.8666615,41.3583372 95.9,40.575 C96.4881245,40.1291637 97.1680236,39.5024713 97.9397047,38.6949152 C97.8465681,38.063546 97.8,37.4152417 97.8,36.75 C97.8,34.216654 98.2833285,31.9583432 99.25,29.975 C100.216671,27.9916567 101.549991,26.4416722 103.25,25.325 C104.950008,24.2083277 106.833323,23.65 108.9,23.65 C111.433346,23.65 113.474992,24.5249912 115.025,26.275 C116.575008,28.0250087 117.483332,30.1833205 117.75,32.75 C118.922031,32.6751895 120.261944,32.4697949 121.769762,32.133812 C121.723254,30.8047205 121.7,29.5434515 121.7,28.35 L121.7,26.6 C121.733333,25.4999945 122.03333,24.7333355 122.6,24.3 C123.166669,23.8666645 124.016661,23.65 125.15,23.65 C126.016671,23.65 126.658331,23.8416647 127.075,24.225 C127.491669,24.6083352 127.7,25.2499955 127.7,26.15 C127.7,29.9833525 127.933331,34.966636 128.4,41.1 C130.40001,38.1333185 131.899995,35.7666755 132.9,34 C132.399997,33.0333285 132.15,31.88334 132.15,30.55 C132.15,29.416661 132.399997,28.316672 132.9,27.25 C133.400002,26.183328 134.083329,25.31667 134.95,24.65 C135.816671,23.98333 136.799994,23.65 137.9,23.65 C138.866671,23.65 139.649997,23.9916632 140.25,24.675 C140.850003,25.3583367 141.15,26.3499935 141.15,27.65 C141.15,29.1500075 140.750004,30.866657 139.95,32.8 C140.99351,32.7450784 142.319787,32.5657343 143.928859,32.2619636 C144.146224,31.547852 144.419937,30.8521983 144.75,30.175 C145.716671,28.1916567 147.058325,26.6166725 148.775,25.45 C150.491675,24.2833275 152.433322,23.7 154.6,23.7 C156.533343,23.7 158.083327,24.2749942 159.25,25.425 C160.416672,26.5750057 161,28.1333235 161,30.1 C161,32.4000115 160.175008,34.3749917 158.525,36.025 C156.874992,37.6750082 154.083353,38.9833285 150.15,39.95 C150.983337,41.483341 152.566655,42.25 154.9,42.25 C156.400007,42.25 158.108324,41.7250052 160.025,40.675 C161.424768,39.9081708 162.686738,38.9680122 163.810932,37.8545082 Z M13.35,31.25 C12.216661,31.25 11.4416688,30.983336 11.025,30.45 C10.6083313,29.916664 10.4,29.31667 10.4,28.65 C10.4,27.849996 10.6583308,27.216669 11.175,26.75 C11.6916693,26.283331 12.28333,26.05 12.95,26.05 L14.2,26.05 C14.733336,22.783317 15.233331,19.9666785 15.7,17.6 C16.1333355,15.4333225 17.5333215,14.35 19.9,14.35 C21.8000095,14.35 22.75,15.1999915 22.75,16.9 C22.75,17.2666685 22.7333335,17.549999 22.7,17.75 L21.2,26.05 C23.000009,25.9499995 24.6416593,25.5166705 26.125,24.75 C27.6083408,23.9833295 28.7916623,22.9166735 29.675,21.55 C30.5583377,20.1833265 31,18.633342 31,16.9 C31,14.7999895 30.2833405,13.150006 28.85,11.95 C27.4166595,10.749994 25.3166805,10.15 22.55,10.15 C19.283317,10.15 16.4250123,10.9583253 13.975,12.575 C11.5249878,14.1916748 9.6166735,16.5916507 8.25,19.775 C6.8833265,22.9583492 6.2,26.8333105 6.2,31.4 C6.2,33.533344 6.4166645,35.366659 6.85,36.9 C7.2833355,38.433341 7.8166635,39.5833295 8.45,40.35 C9.0833365,41.1166705 9.6833305,41.5 10.25,41.5 C10.6833355,41.5 11.0416653,41.2833355 11.325,40.85 C11.6083348,40.4166645 11.8333325,39.7166715 12,38.75 L13.35,31.25 Z M52.5,41.95 C53.566672,41.95 54.4916628,41.516671 55.275,40.65 C56.0583373,39.783329 56.583332,38.5333415 56.85,36.9 C55.8166615,36.1999965 55.0250027,35.283339 54.475,34.15 C53.9249972,33.016661 53.65,31.816673 53.65,30.55 C53.65,30.016664 53.6999995,29.483336 53.8,28.95 L53.55,28.95 C52.21666,28.95 51.1083378,29.5916603 50.225,30.875 C49.3416622,32.1583397 48.9,33.966655 48.9,36.3 C48.9,38.1333425 49.2583298,39.5333285 49.975,40.5 C50.6916702,41.4666715 51.5333285,41.95 52.5,41.95 Z M78.75,4.95 C77.9833295,4.95 77.1166715,6.3333195 76.15,9.1 C75.1833285,11.8666805 74.333337,15.2999795 73.6,19.4 C72.866663,23.5000205 72.466667,27.4333145 72.4,31.2 C74.7666785,27.2999805 76.649993,23.3916862 78.05,19.475 C79.450007,15.5583137 80.15,11.9833495 80.15,8.75 C80.15,6.216654 79.683338,4.95 78.75,4.95 Z M95.05,4.95 C94.2833295,4.95 93.4166715,6.3333195 92.45,9.1 C91.4833285,11.8666805 90.633337,15.2999795 89.9,19.4 C89.166663,23.5000205 88.766667,27.4333145 88.7,31.2 C91.0666785,27.2999805 92.949993,23.3916862 94.35,19.475 C95.750007,15.5583137 96.45,11.9833495 96.45,8.75 C96.45,6.216654 95.983338,4.95 95.05,4.95 Z M107.65,41.95 C108.716672,41.95 109.641663,41.516671 110.425,40.65 C111.208337,39.783329 111.733332,38.5333415 112,36.9 C110.966662,36.1999965 110.175003,35.283339 109.625,34.15 C109.074997,33.016661 108.8,31.816673 108.8,30.55 C108.8,30.016664 108.85,29.483336 108.95,28.95 L108.7,28.95 C107.36666,28.95 106.258338,29.5916603 105.375,30.875 C104.491662,32.1583397 104.05,33.966655 104.05,36.3 C104.05,38.1333425 104.40833,39.5333285 105.125,40.5 C105.84167,41.4666715 106.683329,41.95 107.65,41.95 Z M153.75,28.6 C152.51666,28.6 151.475004,29.3166595 150.625,30.75 C149.774996,32.1833405 149.35,33.9166565 149.35,35.95 L149.35,36.05 C151.316676,35.583331 152.866661,34.883338 154,33.95 C155.133339,33.016662 155.7,31.9333395 155.7,30.7 C155.7,30.0666635 155.525002,29.5583352 155.175,29.175 C154.824998,28.7916647 154.350003,28.6 153.75,28.6 Z" id="Rollover"></path>
            </g>
        </g>
    </g>
</svg>